<svg width="24" height="20" viewBox="0 0 24 20" fill="none" xmlns="http://www.w3.org/2000/svg">
<path d="M23.667 1.43413V8.99413C23.6664 9.35145 23.5241 9.69393 23.2713 9.94652C23.0186 10.1991 22.676 10.3412 22.3187 10.3416H21.872V12.8458C21.872 13.3483 21.2737 13.5958 20.9154 13.2516L17.9445 10.3416H10.247C9.49703 10.3416 8.89203 9.73663 8.89203 8.99413V1.43329C8.89203 0.690794 9.49703 0.0849609 10.247 0.0849609H22.3187C22.6762 0.085402 23.0189 0.227599 23.2716 0.480365C23.5244 0.733131 23.6666 1.07666 23.667 1.43413Z" fill="#EC8B09"/>
<path d="M16.34 5.71647C16.4117 5.95064 16.5 6.16314 16.54 6.3848C16.935 8.56147 13.6942 9.5223 12.3692 7.37147C12.1608 7.03564 12.1642 7.0348 12.5192 6.86897C12.69 6.78897 12.865 6.71314 13.0283 6.61897C13.155 6.5448 13.22 6.58564 13.295 6.69147C13.5258 7.01647 13.8108 7.2773 14.2058 7.38814C15.3642 7.71314 15.8167 6.21314 14.8475 5.78814C14.5761 5.67191 14.2766 5.63744 13.9858 5.68897C13.61 5.74897 13.65 5.7823 13.6467 5.3948C13.645 5.15897 13.6508 4.92314 13.6458 4.68814C13.6425 4.5573 13.6842 4.52314 13.8192 4.54397C14.25 4.60897 14.6458 4.5273 14.9558 4.19647C15.1708 3.9673 15.215 3.61814 15.0758 3.36564C14.92 3.08397 14.6542 2.94397 14.3233 3.01647C14.0342 3.08064 13.7542 3.1873 13.4708 3.27647C13.4175 3.29314 13.3667 3.32064 13.2925 3.35314C13.2175 3.1473 13.0633 2.7498 12.9925 2.4498C12.98 2.3998 12.9925 2.3048 13.0242 2.28897C13.7142 1.9373 14.4292 1.6898 15.2067 1.96647C16.2733 2.34564 16.6892 3.47147 16.1483 4.46647C16.1383 4.48564 16.1342 4.5073 16.115 4.56147H16.5542C16.8183 4.56147 17.0825 4.55814 17.3467 4.56147C17.4483 4.56314 17.4917 4.52814 17.4908 4.4223C17.4876 4.05453 17.4876 3.68674 17.4908 3.31897C17.4908 3.22314 17.4542 3.18564 17.3575 3.1873C17.1908 3.1923 17.0242 3.18397 16.8575 3.1898C16.7558 3.19397 16.7108 3.15647 16.7117 3.0523C16.7142 2.7598 16.7142 2.46647 16.7117 2.17397C16.71 2.06897 16.7583 2.03647 16.8592 2.03647C17.9617 2.03897 19.065 2.03897 20.1675 2.03647C20.2892 2.03564 20.3308 2.08064 20.3292 2.19814C20.325 2.47314 20.3233 2.7498 20.3292 3.0248C20.3325 3.1548 20.2792 3.1923 20.1542 3.19147C19.7467 3.1848 19.3384 3.19564 18.9309 3.1848C18.7725 3.18064 18.7275 3.22897 18.7275 3.3873C18.7333 4.97314 18.7308 6.55897 18.7308 8.1448C18.7308 8.3948 18.7308 8.39564 18.4858 8.39564C18.2158 8.39647 17.9458 8.39064 17.6758 8.39814C17.5342 8.40147 17.4858 8.35064 17.4875 8.2073C17.4925 7.44314 17.485 6.67897 17.4933 5.91564C17.495 5.7523 17.4408 5.70814 17.2867 5.71314C16.9675 5.72314 16.6475 5.71647 16.34 5.71647Z" fill="white"/>
<path d="M13.3539 9.51794V15.8596C13.3535 16.2171 13.2113 16.5598 12.9585 16.8125C12.7057 17.0653 12.363 17.2075 12.0056 17.2079H5.38307L2.75474 19.7738C2.68458 19.8411 2.59616 19.8863 2.50049 19.9038C2.40482 19.9213 2.30613 19.9102 2.21669 19.872C2.12725 19.8339 2.05102 19.7702 1.99748 19.689C1.94394 19.6078 1.91546 19.5127 1.91557 19.4154V17.2071H1.68224C1.32492 17.2067 0.982349 17.0646 0.729607 16.812C0.476864 16.5594 0.33457 16.2169 0.333908 15.8596V9.51794C0.333908 8.76794 0.938908 8.16211 1.68224 8.16211H12.0072C12.7489 8.16211 13.3539 8.76794 13.3539 9.51794Z" fill="#10A37F"/>
<path d="M6.2227 9.87109H7.49187L9.5952 15.4978H8.3102L7.8852 14.2444H5.78104L5.3402 15.4978H4.08687L6.2227 9.87109ZM6.10437 13.3219H7.5627L6.85353 11.2578H6.83687L6.10437 13.3219Z" fill="white"/>
</svg>
