<svg width="48" height="59" viewBox="0 0 48 59" fill="none" xmlns="http://www.w3.org/2000/svg">
<path d="M23.9998 0.833252C11.7498 0.833252 0.666504 10.2249 0.666504 24.7499C0.666504 34.0249 7.81234 44.9333 22.0748 57.5041C23.1832 58.4666 24.8457 58.4666 25.954 57.5041C40.1873 44.9333 47.3332 34.0249 47.3332 24.7499C47.3332 10.2249 36.2498 0.833252 23.9998 0.833252ZM23.9998 29.9999C20.7915 29.9999 18.1665 27.3749 18.1665 24.1666C18.1665 20.9583 20.7915 18.3333 23.9998 18.3333C27.2082 18.3333 29.8332 20.9583 29.8332 24.1666C29.8332 27.3749 27.2082 29.9999 23.9998 29.9999Z" fill="url(#paint0_linear_181_2392)"/>
<defs>
<linearGradient id="paint0_linear_181_2392" x1="16.9998" y1="0.833252" x2="38.2615" y2="47.295" gradientUnits="userSpaceOnUse">
<stop stop-color="#FFE2BA"/>
<stop offset="1" stop-color="#FF9200"/>
</linearGradient>
</defs>
</svg>
