<svg width="73" height="28" viewBox="0 0 73 28" fill="none" xmlns="http://www.w3.org/2000/svg">
<path d="M20.1543 6.974L24.3403 12H21.9463L18.2923 7.478V12H16.3183V2.116H18.2923V6.554L21.9603 2.116H24.3403L20.1543 6.974ZM31.1774 10.012H27.2154L26.5154 12H24.4294L28.0694 2.228H30.3234L33.9494 12H31.8634L31.1774 10.012ZM30.6454 8.514L29.1894 4.342L27.7334 8.514H30.6454ZM40.7549 10.012H36.7929L36.0929 12H34.0069L37.6469 2.228H39.9009L43.5269 12H41.4409L40.7549 10.012ZM40.2229 8.514L38.7669 4.342L37.3109 8.514H40.2229ZM54.9663 2.228V12H53.0063V5.182L50.5003 12H48.7923L46.2863 5.21V12H44.3123V2.228H46.7063L49.6743 9.578L52.5863 2.228H54.9663ZM26.9989 15.738C27.6709 15.738 28.2449 15.8547 28.7209 16.088C29.2062 16.3213 29.5702 16.6433 29.8129 17.054C30.0649 17.4647 30.1909 17.922 30.1909 18.426C30.1909 19.0607 30.0182 19.5833 29.6729 19.994C29.3275 20.3953 28.8702 20.6427 28.3009 20.736V20.806C29.6822 21.2167 30.3729 22.0287 30.3729 23.242C30.3729 24.0913 30.0882 24.782 29.5189 25.314C28.9495 25.8367 28.1469 26.098 27.1109 26.098C26.0095 26.098 25.1322 25.8273 24.4789 25.286C23.8255 24.7353 23.4615 23.9093 23.3869 22.808H25.3189C25.3655 23.312 25.5289 23.7133 25.8089 24.012C26.0982 24.3013 26.5042 24.446 27.0269 24.446C27.4749 24.446 27.8249 24.3247 28.0769 24.082C28.3289 23.83 28.4549 23.5033 28.4549 23.102C28.4549 22.626 28.2729 22.262 27.9089 22.01C27.5449 21.758 27.0082 21.632 26.2989 21.632H25.8929V20.022H26.2989C27.6055 20.0407 28.2589 19.588 28.2589 18.664C28.2589 18.2627 28.1422 17.95 27.9089 17.726C27.6755 17.4927 27.3582 17.376 26.9569 17.376C26.5369 17.376 26.1915 17.5113 25.9209 17.782C25.6502 18.0433 25.4962 18.412 25.4589 18.888H23.5269C23.5829 17.88 23.9095 17.1053 24.5069 16.564C25.1042 16.0133 25.9349 15.738 26.9989 15.738ZM36.7797 18.804C36.6304 17.8333 36.1357 17.348 35.2957 17.348C34.6424 17.348 34.1664 17.6373 33.8677 18.216C33.5691 18.7853 33.4384 19.6813 33.4757 20.904C33.6251 20.456 33.9144 20.1013 34.3437 19.84C34.7824 19.5693 35.2911 19.434 35.8697 19.434C36.8217 19.434 37.5684 19.7233 38.1097 20.302C38.6604 20.8713 38.9357 21.6833 38.9357 22.738C38.9357 23.3913 38.8051 23.97 38.5437 24.474C38.2824 24.978 37.8904 25.3747 37.3677 25.664C36.8544 25.9533 36.2291 26.098 35.4917 26.098C34.0544 26.098 33.0651 25.6547 32.5237 24.768C31.9824 23.872 31.7117 22.64 31.7117 21.072C31.7117 19.2707 32.0011 17.936 32.5797 17.068C33.1677 16.2 34.1151 15.766 35.4217 15.766C36.4204 15.766 37.1857 16.0507 37.7177 16.62C38.2497 17.1893 38.5531 17.9173 38.6277 18.804H36.7797ZM33.6437 22.598C33.6437 23.1207 33.7931 23.5547 34.0917 23.9C34.3997 24.236 34.8477 24.404 35.4357 24.404C35.9397 24.404 36.3411 24.2547 36.6397 23.956C36.9384 23.6573 37.0877 23.242 37.0877 22.71C37.0877 22.15 36.9337 21.7207 36.6257 21.422C36.3271 21.1233 35.9211 20.974 35.4077 20.974C34.9224 20.974 34.5071 21.114 34.1617 21.394C33.8164 21.674 33.6437 22.0753 33.6437 22.598ZM47.0837 17.656H42.3937V20.148C42.6084 19.896 42.9024 19.6953 43.2757 19.546C43.6584 19.3873 44.0784 19.308 44.5357 19.308C45.2171 19.308 45.7817 19.4573 46.2297 19.756C46.6871 20.0453 47.0231 20.4373 47.2377 20.932C47.4617 21.4173 47.5737 21.9587 47.5737 22.556C47.5737 23.6107 47.2751 24.4553 46.6777 25.09C46.0897 25.7247 45.2451 26.042 44.1437 26.042C43.4251 26.042 42.7997 25.916 42.2677 25.664C41.7357 25.4027 41.3204 25.0433 41.0217 24.586C40.7231 24.1193 40.5597 23.578 40.5317 22.962H42.4497C42.5244 23.382 42.6971 23.718 42.9677 23.97C43.2384 24.2127 43.5977 24.334 44.0457 24.334C44.5871 24.334 44.9884 24.1707 45.2497 23.844C45.5204 23.508 45.6557 23.0647 45.6557 22.514C45.6557 21.9913 45.5157 21.5853 45.2357 21.296C44.9557 21.0067 44.5591 20.862 44.0457 20.862C43.6724 20.862 43.3551 20.946 43.0937 21.114C42.8324 21.2727 42.6411 21.4873 42.5197 21.758H40.6017V15.92H47.0837V17.656Z" fill="#314395"/>
<line x1="51.5" y1="19.5" x2="72.5" y2="19.5" stroke="#158809"/>
<line y1="19.5" x2="21" y2="19.5" stroke="#FC7700"/>
</svg>
