<svg width="16" height="18" viewBox="0 0 16 18" fill="none" xmlns="http://www.w3.org/2000/svg">
<path d="M15.564 4.31278C15.4143 2.59502 15.2117 2.11182 13.8331 1.77262C12.5081 1.44622 9.67156 1.42318 9.67156 1.42318C9.59931 0.81646 9.11677 0.37422 8.66068 0.23022C8.20459 0.08622 6.92986 -0.02706 5.99639 0.08622C5.06357 0.1995 4.68037 0.92974 4.68037 1.21774V3.22286C4.68037 3.88078 4.29654 4.01454 4.07913 4.01454H2.00576C0.543952 4.16878 0.637493 5.48014 0.823928 6.77614C1.01036 8.07214 1.67934 11.3112 2.27026 11.7585C2.86117 12.2059 6.29766 12.7921 6.84922 12.8459C7.26854 12.8869 7.62657 12.9694 7.97622 12.1361C8.32587 11.3029 8.32587 9.79374 8.32587 9.79374H8.4007C8.4007 10.3595 8.41102 10.9662 8.92388 11.6574C9.37417 12.2641 11.2798 12.1739 12.0959 12.4824C12.9119 12.7909 12.8655 14.403 12.8577 15.1358C12.85 15.8686 12.2978 16.0536 12.1423 16.0536C11.9868 16.0536 10.8753 16.0843 10.2999 16.0536C9.72446 16.0229 9.70898 15.2126 9.85671 14.9118C10.0044 14.611 10.805 14.6341 10.9605 14.6341C11.116 14.6341 11.0772 14.4568 11.054 14.2641C11.0308 14.0715 11.0695 13.7937 11.1398 13.5697C11.2095 13.3464 11.1321 13.3381 9.9038 13.3464C8.55101 13.3547 7.91365 14.7038 8.25555 16.4318C8.59746 18.1598 10.5721 17.9281 11.4121 17.9435C12.252 17.9589 13.6822 18.1438 14.4595 16.7403C15.2369 15.3368 15.5478 12.9765 15.7504 11.3873C15.953 9.7995 15.782 6.80686 15.564 4.31278ZM13.1693 8.73518C12.2468 8.35438 11.3037 8.52974 11.3037 8.52974C11.3037 8.52974 11.3759 7.47054 12.2778 7.47054C13.1796 7.47054 13.1693 8.45742 13.1693 8.73518Z" fill="#ED0000"/>
</svg>
